<svg width="18" height="18" viewBox="0 0 18 18" fill="none" xmlns="http://www.w3.org/2000/svg">
<g clip-path="url(#clip0_371_992)">
<path fill-rule="evenodd" clip-rule="evenodd" d="M9.68099 1.18577C9.62096 1.05567 9.52492 0.945495 9.40424 0.868268C9.28355 0.791041 9.14327 0.75 8.99999 0.75C8.85671 0.75 8.71643 0.791041 8.59575 0.868268C8.47506 0.945495 8.37902 1.05567 8.31899 1.18577L6.16649 5.85077L1.06574 6.45602C0.92343 6.47283 0.78891 6.53005 0.678104 6.62092C0.567298 6.71179 0.484843 6.8325 0.440499 6.96876C0.396155 7.10503 0.391778 7.25115 0.427885 7.38983C0.463993 7.5285 0.539074 7.65393 0.644242 7.75127L4.41674 11.2388L3.41549 16.2788C3.38768 16.4193 3.40068 16.5648 3.45295 16.6981C3.50522 16.8315 3.59458 16.9471 3.71046 17.0312C3.82634 17.1154 3.96389 17.1646 4.10686 17.1731C4.24983 17.1816 4.39224 17.1489 4.51724 17.079L8.99999 14.5695L13.4827 17.079C13.6078 17.1492 13.7504 17.1821 13.8936 17.1737C14.0368 17.1653 14.1746 17.116 14.2906 17.0317C14.4067 16.9474 14.4961 16.8316 14.5483 16.698C14.6005 16.5644 14.6133 16.4187 14.5852 16.278L13.584 11.2395L17.3557 7.75127C17.4609 7.65393 17.536 7.5285 17.5721 7.38983C17.6082 7.25115 17.6038 7.10503 17.5595 6.96876C17.5151 6.8325 17.4327 6.71179 17.3219 6.62092C17.2111 6.53005 17.0766 6.47283 16.9342 6.45602L11.8327 5.85002L9.68099 1.18577Z" fill="#FFCC4D"/>
</g>
<defs>
<clipPath id="clip0_371_992">
<rect width="18" height="18" fill="white"/>
</clipPath>
</defs>
</svg>
